<mxfile host="app.diagrams.net" agent="Mozilla/5.0 (Windows NT 10.0; Win64; x64) AppleWebKit/537.36 (KHTML, like Gecko) Chrome/129.0.0.0 Safari/537.36" version="24.7.14">
  <diagram name="Trang-1" id="cqkE5FdOzA8yBUXh80Zv">
    <mxGraphModel dx="1018" dy="2859" grid="1" gridSize="10" guides="1" tooltips="1" connect="1" arrows="1" fold="1" page="1" pageScale="1" pageWidth="1654" pageHeight="2336" math="0" shadow="0">
      <root>
        <mxCell id="0" />
        <mxCell id="1" parent="0" />
        <mxCell id="ft5-xV46T6aF1O72ecmL-5" value="" style="shape=umlLifeline;perimeter=lifelinePerimeter;whiteSpace=wrap;html=1;container=1;dropTarget=0;collapsible=0;recursiveResize=0;outlineConnect=0;portConstraint=eastwest;newEdgeStyle={&quot;curved&quot;:0,&quot;rounded&quot;:0};participant=umlActor;" vertex="1" parent="1">
          <mxGeometry x="300" y="-180" width="40" height="390" as="geometry" />
        </mxCell>
        <mxCell id="ft5-xV46T6aF1O72ecmL-20" value="" style="html=1;points=[[0,0,0,0,5],[0,1,0,0,-5],[1,0,0,0,5],[1,1,0,0,-5]];perimeter=orthogonalPerimeter;outlineConnect=0;targetShapes=umlLifeline;portConstraint=eastwest;newEdgeStyle={&quot;curved&quot;:0,&quot;rounded&quot;:0};" vertex="1" parent="ft5-xV46T6aF1O72ecmL-5">
          <mxGeometry x="15" y="190" width="10" height="70" as="geometry" />
        </mxCell>
        <mxCell id="ft5-xV46T6aF1O72ecmL-10" value="LoginView.vue" style="shape=umlLifeline;perimeter=lifelinePerimeter;whiteSpace=wrap;html=1;container=1;dropTarget=0;collapsible=0;recursiveResize=0;outlineConnect=0;portConstraint=eastwest;newEdgeStyle={&quot;curved&quot;:0,&quot;rounded&quot;:0};" vertex="1" parent="1">
          <mxGeometry x="550" y="-180" width="100" height="400" as="geometry" />
        </mxCell>
        <mxCell id="ft5-xV46T6aF1O72ecmL-15" value="" style="html=1;points=[[0,0,0,0,5],[0,1,0,0,-5],[1,0,0,0,5],[1,1,0,0,-5]];perimeter=orthogonalPerimeter;outlineConnect=0;targetShapes=umlLifeline;portConstraint=eastwest;newEdgeStyle={&quot;curved&quot;:0,&quot;rounded&quot;:0};" vertex="1" parent="ft5-xV46T6aF1O72ecmL-10">
          <mxGeometry x="45" y="110" width="10" height="80" as="geometry" />
        </mxCell>
        <mxCell id="ft5-xV46T6aF1O72ecmL-18" value="" style="html=1;points=[[0,0,0,0,5],[0,1,0,0,-5],[1,0,0,0,5],[1,1,0,0,-5]];perimeter=orthogonalPerimeter;outlineConnect=0;targetShapes=umlLifeline;portConstraint=eastwest;newEdgeStyle={&quot;curved&quot;:0,&quot;rounded&quot;:0};" vertex="1" parent="ft5-xV46T6aF1O72ecmL-10">
          <mxGeometry x="45" y="260" width="10" height="60" as="geometry" />
        </mxCell>
        <mxCell id="ft5-xV46T6aF1O72ecmL-19" value="Kiểm tra password" style="html=1;align=left;spacingLeft=2;endArrow=block;rounded=0;edgeStyle=orthogonalEdgeStyle;curved=0;rounded=0;" edge="1" target="ft5-xV46T6aF1O72ecmL-18" parent="ft5-xV46T6aF1O72ecmL-10">
          <mxGeometry relative="1" as="geometry">
            <mxPoint x="50" y="260" as="sourcePoint" />
            <Array as="points">
              <mxPoint x="80" y="290" />
            </Array>
          </mxGeometry>
        </mxCell>
        <mxCell id="ft5-xV46T6aF1O72ecmL-11" value="LoginController" style="shape=umlLifeline;perimeter=lifelinePerimeter;whiteSpace=wrap;html=1;container=1;dropTarget=0;collapsible=0;recursiveResize=0;outlineConnect=0;portConstraint=eastwest;newEdgeStyle={&quot;curved&quot;:0,&quot;rounded&quot;:0};" vertex="1" parent="1">
          <mxGeometry x="850" y="-180" width="100" height="500" as="geometry" />
        </mxCell>
        <mxCell id="ft5-xV46T6aF1O72ecmL-22" value="" style="html=1;points=[[0,0,0,0,5],[0,1,0,0,-5],[1,0,0,0,5],[1,1,0,0,-5]];perimeter=orthogonalPerimeter;outlineConnect=0;targetShapes=umlLifeline;portConstraint=eastwest;newEdgeStyle={&quot;curved&quot;:0,&quot;rounded&quot;:0};" vertex="1" parent="ft5-xV46T6aF1O72ecmL-11">
          <mxGeometry x="50" y="320" width="10" height="50" as="geometry" />
        </mxCell>
        <mxCell id="ft5-xV46T6aF1O72ecmL-23" value="Mã hóa password" style="html=1;align=left;spacingLeft=2;endArrow=block;rounded=0;edgeStyle=orthogonalEdgeStyle;curved=0;rounded=0;" edge="1" target="ft5-xV46T6aF1O72ecmL-22" parent="ft5-xV46T6aF1O72ecmL-11">
          <mxGeometry relative="1" as="geometry">
            <mxPoint x="55" y="320" as="sourcePoint" />
            <Array as="points">
              <mxPoint x="85" y="350" />
            </Array>
          </mxGeometry>
        </mxCell>
        <mxCell id="ft5-xV46T6aF1O72ecmL-12" value="User" style="shape=umlLifeline;perimeter=lifelinePerimeter;whiteSpace=wrap;html=1;container=1;dropTarget=0;collapsible=0;recursiveResize=0;outlineConnect=0;portConstraint=eastwest;newEdgeStyle={&quot;curved&quot;:0,&quot;rounded&quot;:0};" vertex="1" parent="1">
          <mxGeometry x="1090" y="-180" width="100" height="530" as="geometry" />
        </mxCell>
        <mxCell id="ft5-xV46T6aF1O72ecmL-25" value="" style="html=1;points=[[0,0,0,0,5],[0,1,0,0,-5],[1,0,0,0,5],[1,1,0,0,-5]];perimeter=orthogonalPerimeter;outlineConnect=0;targetShapes=umlLifeline;portConstraint=eastwest;newEdgeStyle={&quot;curved&quot;:0,&quot;rounded&quot;:0};" vertex="1" parent="ft5-xV46T6aF1O72ecmL-12">
          <mxGeometry x="45" y="370" width="10" height="80" as="geometry" />
        </mxCell>
        <mxCell id="ft5-xV46T6aF1O72ecmL-13" value="Gửi yêu cầu đăng nhập" style="html=1;verticalAlign=bottom;endArrow=block;curved=0;rounded=0;" edge="1" parent="1" source="ft5-xV46T6aF1O72ecmL-5" target="ft5-xV46T6aF1O72ecmL-15">
          <mxGeometry x="0.0006" width="80" relative="1" as="geometry">
            <mxPoint x="680" y="20" as="sourcePoint" />
            <mxPoint x="760" y="20" as="targetPoint" />
            <Array as="points">
              <mxPoint x="450" y="-70" />
            </Array>
            <mxPoint as="offset" />
          </mxGeometry>
        </mxCell>
        <mxCell id="ft5-xV46T6aF1O72ecmL-14" value="Yêu cầu nhập Email/Username &amp;amp; Password" style="html=1;verticalAlign=bottom;endArrow=block;curved=0;rounded=0;" edge="1" parent="1" source="ft5-xV46T6aF1O72ecmL-10" target="ft5-xV46T6aF1O72ecmL-5">
          <mxGeometry width="80" relative="1" as="geometry">
            <mxPoint x="600" y="10" as="sourcePoint" />
            <mxPoint x="760" y="20" as="targetPoint" />
            <Array as="points">
              <mxPoint x="540" y="10" />
            </Array>
          </mxGeometry>
        </mxCell>
        <mxCell id="ft5-xV46T6aF1O72ecmL-16" value="Nhập Email/Username &amp;amp; Password" style="html=1;verticalAlign=bottom;endArrow=block;curved=0;rounded=0;" edge="1" parent="1">
          <mxGeometry width="80" relative="1" as="geometry">
            <mxPoint x="319.6666666666665" y="80" as="sourcePoint" />
            <mxPoint x="599.5" y="80" as="targetPoint" />
          </mxGeometry>
        </mxCell>
        <mxCell id="ft5-xV46T6aF1O72ecmL-17" value="Gửi Email/Username &amp;amp; Password đến máy chủ" style="html=1;verticalAlign=bottom;endArrow=block;curved=0;rounded=0;" edge="1" parent="1">
          <mxGeometry x="0.0434" width="80" relative="1" as="geometry">
            <mxPoint x="599.6666666666665" y="140" as="sourcePoint" />
            <mxPoint x="899.5" y="140" as="targetPoint" />
            <Array as="points">
              <mxPoint x="780" y="140" />
            </Array>
            <mxPoint as="offset" />
          </mxGeometry>
        </mxCell>
        <mxCell id="ft5-xV46T6aF1O72ecmL-26" value="" style="html=1;verticalAlign=bottom;endArrow=block;curved=0;rounded=0;entryX=0;entryY=0;entryDx=0;entryDy=5;" edge="1" target="ft5-xV46T6aF1O72ecmL-25" parent="1" source="ft5-xV46T6aF1O72ecmL-11">
          <mxGeometry relative="1" as="geometry">
            <mxPoint x="899.9966666666666" y="205" as="sourcePoint" />
          </mxGeometry>
        </mxCell>
        <mxCell id="ft5-xV46T6aF1O72ecmL-27" value="return" style="html=1;verticalAlign=bottom;endArrow=open;dashed=1;endSize=8;curved=0;rounded=0;exitX=0;exitY=1;exitDx=0;exitDy=-5;" edge="1" source="ft5-xV46T6aF1O72ecmL-25" parent="1" target="ft5-xV46T6aF1O72ecmL-11">
          <mxGeometry relative="1" as="geometry">
            <mxPoint x="899.9966666666666" y="275" as="targetPoint" />
          </mxGeometry>
        </mxCell>
      </root>
    </mxGraphModel>
  </diagram>
</mxfile>
